<svg width="24" height="24" xmlns="http://www.w3.org/2000/svg" role="img">
 <title>Keystone</title>

 <g>
  <title>Layer 1</title>
  <path fill="#42b883" id="svg_1" d="m0,4.5l0,15a4.5,4.5 0 0 0 4.5,4.5l15,0a4.5,4.5 0 0 0 4.5,-4.5l0,-15a4.5,4.5 0 0 0 -4.5,-4.5l-7.5,0l-3.75,0l-1.875,0l-0.9375,0l-0.46875,0l-0.68156,0.07461l-0.68156,0.07461l-0.83712,0.18679l-0.85591,0.52493l-0.59292,0.52493l-0.46142,0.58129l-0.38627,0.84428l-0.31113,0.80671l-0.16086,0.88185zm9.97,10.289l0,3.586l-0.01758,0.26583l-0.00879,0.13291l-0.03661,0.17l-0.09393,0.11438l-0.15882,0.11438l-0.16264,0.10033l-0.18118,0.0818l-0.26488,0.09106l-0.32049,0.05398l-0.2732,0.0259l-0.25466,0.00737l-0.23966,-0.03163l-0.21184,-0.03162l-0.18356,-0.04151l-0.18462,-0.05244l-0.20316,-0.11734l-0.18462,-0.14516l-0.11046,-0.15442l-0.10271,-0.19461l-0.0302,-0.18534l-0.00239,-0.20387l0,-12.683l0.02606,-0.20226l0.04461,-0.17444l0.09803,-0.15557l0.10815,-0.10062l0.12669,-0.11917l0.14525,-0.08207l0.15452,-0.07281l0.1283,-0.04569l0.11903,-0.05496l0.13757,-0.02715l0.11902,-0.02714l0.09408,-0.01692l0.11262,-0.01692l0.11262,-0.02619l0.16824,0.0109l0.12094,0.00703l0.13948,-0.00223l0.1024,0.01631l0.12093,0.02557l0.12926,0.02142l0.11997,0.0307l0.11071,0.03995l0.12925,0.0585l0.14971,0.0735l0.12188,0.06423l0.10335,0.08277l0.09408,0.09203l0.10821,0.1326l0.09892,0.14186l0.05258,0.16967l0.03403,0.18821l-0.03749,5.41889l4.218,-5.45l0.24693,-0.35274l0.12442,-0.16614l0.14296,-0.15688l0.12087,-0.12143l0.18576,-0.13071l0.19503,-0.07508l0.19504,-0.05653l0.17138,-0.02621l0.17138,-0.02622l0.18993,0.01088l0.24554,0.02941l0.23953,0.08017l0.21173,0.13581l0.17361,0.13388l0.1458,0.16169l0.07424,0.13387l0.08351,0.12461l0.04431,0.16743l0.04432,0.16742l0.00492,0.11997l0.00491,0.11997l-0.02753,0.11997l-0.06939,0.16197l-0.08794,0.16197l-3.75326,4.88192l4.3897,6.80588l0.02424,0.08807l0.00571,0.08807l-0.04421,0.09271l-0.05348,0.0788l-0.05348,0.0788l-0.09769,0.10198l-0.09057,0.05562l-0.09056,0.0649l-0.09056,0.05563l-0.16722,0.11589l-0.16009,0.06952l-0.19967,0.07416l-0.14404,0.02782l-0.1765,0.05562l-0.21357,0.01854l-0.16473,0.02781l-0.2018,0l-0.1601,-0.00463l-0.17864,-0.0139l-0.22962,-0.02782l-0.20181,-0.06489l-0.20645,-0.09735l-0.1879,-0.10661l-0.13692,-0.12516l-0.13691,-0.12515l-0.18113,-0.25031l-3.2,-5.001l-1.115,1.415z"/>
 </g>
</svg>