<?xml version="1.0" encoding="UTF-8"?>
<!DOCTYPE svg PUBLIC "-//W3C//DTD SVG 1.1//EN" "http://www.w3.org/Graphics/SVG/1.1/DTD/svg11.dtd">
<svg xmlns="http://www.w3.org/2000/svg" xml:space="preserve" width="64.0645mm" height="64.0645mm" version="1.1" style="shape-rendering:geometricPrecision; text-rendering:geometricPrecision; image-rendering:optimizeQuality; fill-rule:evenodd; clip-rule:evenodd"
viewBox="0 0 909.22 909.22"
 xmlns:xlink="http://www.w3.org/1999/xlink"
 xmlns:xodm="http://www.corel.com/coreldraw/odm/2003">
 <defs>
  <style type="text/css">
   <![CDATA[
    .fil0 {fill:#646cff}
    .fil1 {fill:white}
   ]]>
  </style>
 </defs>
 <g id="图层_x0020_1">
  <metadata id="CorelCorpID_0Corel-Layer"/>
  <rect class="fil0" width="909.22" height="909.22" rx="156.12" ry="156.12"/>
  <path class="fil1" d="M408.6 511.05c7,8.8 36.77,57.28 46.63,72.19 15.87,23.99 31.04,49.52 46.79,73.4 28.32,42.92 42.22,84.58 101.48,77.3 46.04,-6.45 57.15,-55.59 36.15,-85.18l-117.39 -181.79c-5.32,-8.34 -20.39,-29.57 -23.17,-37.22l126.51 -163.92c7.03,-8.94 19.7,-23.38 23.51,-35.39 5.18,-16.31 -6.15,-35.29 -13.83,-42.33 -10.11,-9.27 -23.46,-16.87 -43.56,-15.14 -34.35,2.95 -43.9,23.51 -64.79,51.86 -8.33,11.31 -17.05,22.29 -25.68,33.21l-76.47 98.97c-3.39,4.3 -47,62.86 -52.48,66.14 -1.46,-55.41 0.57,-113.96 0.95,-169.71 0.18,-27.35 5.63,-50.6 -17.39,-67.07 -31.1,-22.25 -111.02,-19.29 -114.04,28.56 -1.67,26.43 -0.11,58.34 -0.11,85.37l0 340.06c0,17.71 -2.95,69.59 3.59,81.87 22.36,41.96 112.35,24.04 118.66,-0.64 3.32,-12.97 1.97,-118.66 1.68,-147.35 -0.11,-10.79 0.39,-10.04 5.42,-16.22 12.87,-15.8 24.35,-31.84 37.51,-46.96z"/>
 </g>
</svg>
