<?xml version="1.0" standalone="no"?><!DOCTYPE svg PUBLIC "-//W3C//DTD SVG 1.1//EN" "http://www.w3.org/Graphics/SVG/1.1/DTD/svg11.dtd"><svg height="1024" legacy-metrics="false" node-id="1" sillyvg="true" template-height="1024" template-width="1024" version="1.1" viewBox="0 0 1024 1024" width="1024" xmlns="http://www.w3.org/2000/svg" xmlns:xlink="http://www.w3.org/1999/xlink"><defs node-id="82"><linearGradient gradientUnits="objectBoundingBox" id="linearGradient-1" node-id="5" x1="0.5" x2="0.5" y1="1.0012227" y2="-0.0005798328"><stop offset="0" stop-color="#fdf5f7" stop-opacity="0"></stop><stop offset="1" stop-color="#fad4d2"></stop></linearGradient><linearGradient gradientUnits="objectBoundingBox" id="linearGradient-2" node-id="8" x1="0.5008439" x2="0.5008439" y1="1" y2="0.00006494738"><stop offset="0" stop-color="#ffffff" stop-opacity="0.1"></stop><stop offset="1" stop-color="#fdeceb"></stop></linearGradient><linearGradient gradientUnits="objectBoundingBox" id="linearGradient-3" node-id="11" x1="0.5000459" x2="0.5000459" y1="0.999312" y2="-0.00081127736"><stop offset="0" stop-color="#ffffff" stop-opacity="0.1"></stop><stop offset="1" stop-color="#fad6d4"></stop></linearGradient><linearGradient gradientUnits="objectBoundingBox" id="linearGradient-4" node-id="14" x1="0.5" x2="0.5" y1="1" y2="0"><stop offset="0" stop-color="#ffffff" stop-opacity="0.1"></stop><stop offset="0.13" stop-color="#fefcfb"></stop><stop offset="0.41" stop-color="#fefcfb"></stop><stop offset="0.81" stop-color="#f9d8d5"></stop><stop offset="1" stop-color="#f9d8d5"></stop></linearGradient><linearGradient gradientUnits="objectBoundingBox" id="linearGradient-5" node-id="20" x1="0.33764496" x2="0.5" y1="0.5629602" y2="0.42657328"><stop offset="0" stop-color="#fff3f2" stop-opacity="0"></stop><stop offset="1" stop-color="#ffe2e0"></stop></linearGradient><linearGradient gradientUnits="objectBoundingBox" id="linearGradient-6" node-id="23" x1="0.068536" x2="0.9390392" y1="0.4556592" y2="0.49347934"><stop offset="0" stop-color="#f78480"></stop><stop offset="1" stop-color="#f64a45"></stop></linearGradient><linearGradient gradientUnits="objectBoundingBox" id="linearGradient-7" node-id="26" x1="0.388434" x2="0.3208519" y1="0.45648274" y2="0.5360485"><stop offset="0" stop-color="#fbc3c3"></stop><stop offset="1" stop-color="#f64a45" stop-opacity="0"></stop></linearGradient><linearGradient gradientUnits="objectBoundingBox" id="linearGradient-8" node-id="29" x1="0.5" x2="0.5" y1="0" y2="1"><stop offset="0" stop-color="#f52d22"></stop><stop offset="1" stop-color="#b91104"></stop></linearGradient><linearGradient gradientUnits="objectBoundingBox" id="linearGradient-9" node-id="32" x1="0.5" x2="0.5" y1="0" y2="1"><stop offset="0" stop-color="#fcd8d7"></stop><stop offset="1" stop-color="#f7837c"></stop></linearGradient><linearGradient gradientUnits="objectBoundingBox" id="linearGradient-10" node-id="35" x1="0.5" x2="0.5" y1="0" y2="1"><stop offset="0" stop-color="#e3736f"></stop><stop offset="1" stop-color="#e3736f" stop-opacity="0"></stop></linearGradient><linearGradient gradientUnits="objectBoundingBox" id="linearGradient-11" node-id="38" x1="0.1379541" x2="0.7596152" y1="0.17809567" y2="0.89573056"><stop offset="0" stop-color="#fbc6c4"></stop><stop offset="1" stop-color="#ff958e"></stop></linearGradient><linearGradient gradientUnits="objectBoundingBox" id="linearGradient-12" node-id="41" x1="0.5" x2="0.5" y1="0" y2="1"><stop offset="0" stop-color="#fe9791"></stop><stop offset="1" stop-color="#f1716c"></stop></linearGradient></defs><path d="M 0.00 0.00 L 1024.00 0.00 L 1024.00 1024.00 L 0.00 1024.00 Z" fill="#ffffff" fill-rule="evenodd" node-id="164" stroke="none" target-height="1024" target-width="1024" target-x="0" target-y="0"></path><g node-id="166"><path d="M 101.34 606.00 L 107.00 667.00 L 72.00 662.93 Z" fill="#fad4d2" fill-rule="nonzero" group-id="1" id="路径" node-id="47" stroke-linecap="butt" stroke-width="1" target-height="61" target-width="35" target-x="72" target-y="606"></path><path d="M 101.00 606.00 L 138.00 654.21 L 106.67 667.00 Z" fill="#fdc6c3" fill-rule="nonzero" group-id="1" id="路径" node-id="48" stroke-linecap="butt" stroke-width="1" target-height="61" target-width="37" target-x="101" target-y="606"></path><path d="M 167.23 342.03 L 165.99 337.10 L 164.26 332.51 L 162.02 328.22 L 159.30 324.21 L 156.20 320.61 L 152.70 317.37 L 148.85 314.56 L 144.72 312.23 L 140.29 310.35 L 135.68 309.01 L 130.88 308.23 L 125.85 308.01 L 121.79 308.18 L 117.85 308.73 L 113.99 309.63 L 110.21 310.90 L 106.56 312.52 L 103.10 314.46 L 99.81 316.73 L 96.68 319.35 L 93.24 318.00 L 89.74 317.04 L 86.16 316.46 L 82.48 316.26 L 78.58 316.44 L 74.87 317.03 L 71.32 318.02 L 67.90 319.43 L 64.65 321.21 L 61.67 323.31 L 58.93 325.73 L 56.43 328.48 L 54.25 331.49 L 52.44 334.73 L 50.97 338.22 L 49.86 342.00 L 45.97 343.19 L 42.44 344.87 L 39.22 347.06 L 36.35 349.69 L 33.92 352.66 L 31.90 356.01 L 30.39 359.61 L 29.42 363.43 L 29.00 367.51 L 29.37 371.24 L 30.18 374.73 L 31.43 378.03 L 33.09 381.14 L 35.09 383.96 L 37.44 386.51 L 40.09 388.74 L 42.98 390.61 L 46.15 392.11 L 49.48 393.19 L 52.98 393.82 L 56.68 393.99 L 160.32 393.99 L 164.02 393.82 L 167.52 393.20 L 170.86 392.12 L 174.02 390.62 L 176.92 388.75 L 179.57 386.52 L 181.92 383.97 L 183.92 381.15 L 185.58 378.04 L 186.82 374.74 L 187.63 371.24 L 188.00 367.51 L 187.58 363.44 L 186.62 359.63 L 185.11 356.04 L 183.11 352.69 L 180.68 349.72 L 177.82 347.09 L 174.62 344.91 L 171.10 343.22 L 167.23 342.03 L 167.23 342.03 Z" fill="url(#linearGradient-1)" fill-rule="nonzero" group-id="1" id="路径" node-id="49" stroke-linecap="butt" stroke-width="1" target-height="85.984924" target-width="159" target-x="29" target-y="308.00684"></path><path d="M 768.71 203.10 L 766.77 200.39 L 764.60 197.95 L 762.19 195.78 L 759.57 193.88 L 756.79 192.28 L 753.84 190.98 L 750.77 190.00 L 747.60 189.35 L 744.31 189.05 L 742.22 186.19 L 739.88 183.65 L 737.29 181.40 L 734.47 179.45 L 731.48 177.85 L 728.31 176.58 L 725.02 175.67 L 721.63 175.15 L 718.12 175.00 L 713.91 175.25 L 709.86 176.04 L 705.94 177.37 L 702.22 179.21 L 698.78 181.52 L 695.60 184.34 L 692.83 183.60 L 690.02 183.15 L 687.16 183.00 L 683.82 183.21 L 680.69 183.76 L 677.74 184.64 L 674.95 185.85 L 671.46 187.94 L 668.48 190.45 L 665.94 193.38 L 664.37 195.83 L 663.17 198.41 L 662.32 201.15 L 661.82 204.07 L 658.53 205.13 L 655.54 206.61 L 652.80 208.50 L 650.37 210.76 L 648.29 213.31 L 646.57 216.17 L 645.26 219.25 L 644.40 222.51 L 644.00 225.99 L 644.24 229.14 L 644.91 232.11 L 646.01 234.93 L 647.49 237.59 L 649.30 240.02 L 651.46 242.25 L 653.89 244.19 L 656.57 245.83 L 659.52 247.19 L 662.62 248.17 L 665.88 248.78 L 669.34 249.00 L 766.66 249.00 L 770.17 248.78 L 773.46 248.17 L 776.56 247.19 L 779.51 245.83 L 782.19 244.19 L 784.61 242.25 L 786.76 240.02 L 788.55 237.59 L 790.02 234.93 L 791.10 232.11 L 791.76 229.14 L 792.00 225.99 L 791.82 222.98 L 791.25 220.15 L 790.31 217.47 L 788.97 214.91 L 786.69 211.80 L 783.93 209.10 L 780.62 206.77 L 777.92 205.38 L 775.06 204.30 L 772.00 203.54 L 768.71 203.10 Z" fill="url(#linearGradient-2)" fill-rule="nonzero" group-id="1" id="路径" node-id="50" stroke-linecap="butt" stroke-width="1" target-height="73.99519" target-width="147.9964" target-x="644" target-y="175.0048"></path><path d="M 949.62 171.74 L 947.00 166.95 L 944.03 162.54 L 940.69 158.47 L 936.99 154.74 L 932.95 151.35 L 928.67 148.38 L 924.14 145.81 L 919.33 143.65 L 914.35 141.93 L 909.24 140.69 L 903.97 139.93 L 898.51 139.64 L 892.46 139.98 L 886.56 140.95 L 880.78 142.54 L 875.21 144.73 L 869.91 147.49 L 864.86 150.85 L 862.51 146.71 L 859.89 142.86 L 857.01 139.30 L 853.86 136.00 L 849.27 132.01 L 844.35 128.57 L 839.08 125.67 L 833.53 123.34 L 827.78 121.61 L 821.80 120.49 L 817.25 120.07 L 812.67 120.03 L 808.03 120.36 L 803.32 121.08 L 798.68 122.21 L 794.26 123.66 L 790.04 125.45 L 786.00 127.57 L 780.90 130.88 L 776.24 134.67 L 772.00 138.93 L 768.23 143.62 L 764.99 148.67 L 762.26 154.11 L 760.61 158.36 L 759.31 162.75 L 758.36 167.30 L 757.76 172.02 L 752.80 173.85 L 748.17 176.03 L 743.83 178.58 L 739.76 181.50 L 735.96 184.77 L 732.50 188.30 L 729.38 192.11 L 726.58 196.19 L 724.15 200.51 L 722.12 204.98 L 720.47 209.64 L 719.21 214.50 L 718.39 219.43 L 718.03 224.45 L 718.11 229.57 L 718.66 234.81 L 719.71 239.98 L 721.17 244.89 L 723.02 249.56 L 725.29 254.02 L 727.94 258.28 L 730.91 262.23 L 734.19 265.90 L 737.81 269.28 L 741.70 272.34 L 745.82 275.03 L 750.18 277.37 L 754.80 279.35 L 759.55 280.92 L 764.45 282.05 L 769.53 282.74 L 774.80 283.00 L 933.05 283.00 L 938.36 282.76 L 943.46 282.07 L 948.40 280.94 L 953.17 279.37 L 957.82 277.38 L 962.20 275.04 L 966.33 272.33 L 970.25 269.25 L 973.88 265.84 L 977.17 262.15 L 980.14 258.17 L 982.80 253.89 L 985.06 249.40 L 986.91 244.69 L 988.35 239.75 L 989.38 234.55 L 989.91 229.27 L 989.96 224.12 L 989.56 219.08 L 988.70 214.13 L 987.40 209.26 L 985.71 204.59 L 983.63 200.10 L 981.14 195.79 L 978.29 191.71 L 975.12 187.92 L 971.61 184.41 L 967.74 181.16 L 963.62 178.27 L 959.23 175.76 L 954.55 173.62 L 949.54 171.85 L 949.62 171.74 Z" fill="url(#linearGradient-3)" fill-rule="nonzero" group-id="1" id="路径" node-id="51" stroke-linecap="butt" stroke-width="1" target-height="162.97498" target-width="271.93683" target-x="718.0257" target-y="120.02502"></path><g node-id="169"><path d="M 1024.00 742.00 L 1023.72 747.26 L 1022.92 752.49 L 1021.58 757.74 L 1019.68 763.02 L 1017.19 768.35 L 1014.07 773.75 L 1009.99 779.63 L 1005.12 785.58 L 999.39 791.62 L 992.72 797.76 L 985.03 803.99 L 977.44 809.50 L 969.00 815.04 L 959.66 820.62 L 949.34 826.24 L 937.98 831.88 L 924.12 838.13 L 908.91 844.34 L 892.24 850.48 L 874.04 856.55 L 854.73 862.35 L 834.25 867.89 L 812.55 873.15 L 790.76 877.88 L 768.00 882.30 L 744.23 886.38 L 720.41 889.97 L 695.82 893.20 L 670.45 896.05 L 645.04 898.44 L 619.09 900.42 L 592.58 901.98 L 566.05 903.10 L 539.19 903.77 L 512.00 904.00 L 484.81 903.77 L 457.95 903.10 L 431.42 901.98 L 404.91 900.42 L 378.96 898.44 L 353.55 896.05 L 328.18 893.20 L 303.59 889.97 L 279.77 886.38 L 256.00 882.30 L 233.24 877.88 L 211.45 873.15 L 189.75 867.89 L 169.27 862.35 L 149.96 856.55 L 131.76 850.48 L 115.09 844.34 L 99.88 838.13 L 86.02 831.88 L 74.66 826.24 L 64.34 820.62 L 55.00 815.04 L 46.56 809.50 L 38.97 803.99 L 31.28 797.76 L 24.61 791.62 L 18.88 785.58 L 14.01 779.63 L 9.93 773.75 L 6.81 768.35 L 4.32 763.02 L 2.42 757.74 L 1.08 752.49 L 0.28 747.26 L 0.00 742.00 L 0.28 736.74 L 1.08 731.51 L 2.42 726.26 L 4.32 720.98 L 6.81 715.65 L 9.93 710.25 L 14.01 704.37 L 18.88 698.42 L 24.61 692.38 L 31.28 686.24 L 38.97 680.01 L 46.56 674.50 L 55.00 668.96 L 64.34 663.38 L 74.66 657.76 L 86.02 652.12 L 99.88 645.87 L 115.09 639.66 L 131.76 633.52 L 149.96 627.45 L 169.27 621.65 L 189.75 616.11 L 211.45 610.85 L 233.24 606.12 L 256.00 601.70 L 279.77 597.62 L 303.59 594.03 L 328.18 590.80 L 353.55 587.95 L 378.96 585.56 L 404.91 583.58 L 431.42 582.02 L 457.95 580.90 L 484.81 580.23 L 512.00 580.00 L 539.19 580.23 L 566.05 580.90 L 592.58 582.02 L 619.09 583.58 L 645.04 585.56 L 670.45 587.95 L 695.82 590.80 L 720.41 594.03 L 744.23 597.62 L 768.00 601.70 L 790.76 606.12 L 812.55 610.85 L 834.25 616.11 L 854.73 621.65 L 874.04 627.45 L 892.24 633.52 L 908.91 639.66 L 924.12 645.87 L 937.98 652.12 L 949.34 657.76 L 959.66 663.38 L 969.00 668.96 L 977.44 674.50 L 985.03 680.01 L 992.72 686.24 L 999.39 692.38 L 1005.12 698.42 L 1009.99 704.37 L 1014.07 710.25 L 1017.19 715.65 L 1019.68 720.98 L 1021.58 726.26 L 1022.92 731.51 L 1023.72 736.74 L 1024.00 742.00 Z" fill="url(#linearGradient-4)" fill-opacity="0.40774465" fill-rule="nonzero" group-id="1,4" id="椭圆形" node-id="52" stroke-linecap="butt" stroke-opacity="0.40774465" stroke-width="1" target-height="324" target-width="1024" target-x="0" target-y="580"></path></g><path d="M 906.00 606.00 L 901.13 670.00 L 865.00 659.52 Z" fill="#fad4d2" fill-rule="nonzero" group-id="1" id="路径" node-id="53" stroke-linecap="butt" stroke-width="1" target-height="64" target-width="41" target-x="865" target-y="606"></path><path d="M 904.85 606.00 L 935.00 662.39 L 900.00 670.00 Z" fill="#fdc6c3" fill-rule="nonzero" group-id="1" id="路径" node-id="54" stroke-linecap="butt" stroke-width="1" target-height="64" target-width="35" target-x="900" target-y="606"></path><path d="M 201.37 594.00 L 206.00 642.00 L 177.00 638.81 Z" fill="#f7d9d7" fill-rule="nonzero" group-id="1" id="路径" node-id="55" stroke-linecap="butt" stroke-width="1" target-height="48" target-width="29" target-x="177" target-y="594"></path><path d="M 200.00 594.00 L 230.00 631.89 L 204.55 642.00 Z" fill="#ffccc8" fill-rule="nonzero" group-id="1" id="路径" node-id="56" stroke-linecap="butt" stroke-width="1" target-height="48" target-width="30" target-x="200" target-y="594"></path><path d="M 148.48 564.00 L 158.00 665.00 L 94.00 658.71 Z" fill="#fad4d2" fill-rule="nonzero" group-id="1" id="路径" node-id="57" stroke-linecap="butt" stroke-width="1" target-height="101" target-width="64" target-x="94" target-y="564"></path><path d="M 147.00 564.00 L 214.00 643.37 L 156.53 665.00 Z" fill="#fdc6c3" fill-rule="nonzero" group-id="1" id="路径" node-id="58" stroke-linecap="butt" stroke-width="1" target-height="101" target-width="67" target-x="147" target-y="564"></path></g><path d="M 659.71 636.50 L 359.55 621.54 L 221.14 742.00 L 431.41 789.61 Z" fill="url(#linearGradient-5)" fill-rule="evenodd" id="路径-24" node-id="59" stroke="none" target-height="168.0664" target-width="438.56982" target-x="221.13976" target-y="621.5387"></path><path d="M 391.00 595.44 L 533.14 675.00 L 631.69 625.51 L 464.46 540.00 Z" fill="#f52d22" fill-rule="evenodd" group-id="2" id="路径-30" node-id="61" stroke-linecap="butt" stroke-width="1" target-height="135" target-width="240.69196" target-x="391" target-y="540"></path><path d="M 392.73 596.00 L 484.00 544.56 L 467.84 511.00 L 361.00 574.88 Z" fill="#f64540" fill-rule="evenodd" group-id="2" id="路径-32" node-id="62" stroke-linecap="butt" stroke-width="1" target-height="85" target-width="123" target-x="361" target-y="511"></path><path d="M 629.44 628.00 L 662.00 605.04 L 467.19 511.50 L 475.84 546.67 Z" fill="#f65c57" fill-rule="evenodd" group-id="2" id="路径-33" node-id="63" stroke-linecap="butt" stroke-width="1" target-height="116.49753" target-width="194.8068" target-x="467.1932" target-y="511.50247"></path><path d="M 362.94 572.57 L 540.00 667.00 L 540.00 667.00 L 662.00 605.04 L 662.00 635.01 L 549.32 708.20 L 547.41 709.21 L 545.44 709.84 L 543.38 710.12 L 541.29 710.05 L 539.27 709.61 L 537.28 708.80 L 360.00 617.33 L 360.00 617.33 L 360.00 574.33 L 360.16 573.55 L 360.59 572.92 L 361.22 572.49 L 362.00 572.33 L 362.94 572.57 Z" fill="url(#linearGradient-6)" fill-rule="evenodd" group-id="2" id="路径-31" node-id="64" stroke="url(#linearGradient-7)" stroke-linecap="butt" stroke-width="1" target-height="137.79163" target-width="302" target-x="360" target-y="572.3334"></path><path d="M 421.85 622.76 L 472.69 651.00 L 473.45 651.65 L 473.88 652.50 L 473.97 653.45 L 473.67 654.40 L 469.43 662.05 L 468.78 662.82 L 467.94 663.25 L 466.99 663.33 L 466.04 663.03 L 466.03 663.03 L 415.19 634.78 L 414.43 634.13 L 414.00 633.29 L 413.92 632.34 L 414.22 631.39 L 418.45 623.73 L 419.10 622.97 L 419.95 622.54 L 420.89 622.45 L 421.85 622.75 L 421.85 622.76 Z" fill="url(#linearGradient-8)" fill-rule="evenodd" group-id="2" id="矩形" node-id="65" stroke-linecap="butt" stroke-width="1" target-height="40.8786" target-width="60.050323" target-x="413.91684" target-y="622.45306"></path><path d="M 464.00 410.03 L 478.88 396.66 L 479.81 396.04 L 480.85 395.70 L 481.94 395.66 L 483.03 395.92 L 663.21 468.03 L 664.89 468.90 L 666.33 470.02 L 667.55 471.39 L 668.50 472.96 L 669.13 474.67 L 669.46 476.54 L 678.75 596.68 L 678.63 598.04 L 678.08 599.23 L 677.17 600.18 L 675.96 600.80 L 659.33 606.00 L 659.33 606.00 L 643.54 491.02 L 464.00 410.03 Z" fill="url(#linearGradient-9)" fill-rule="evenodd" group-id="2" id="路径-37" node-id="66" stroke-linecap="butt" stroke-width="1" target-height="210.34277" target-width="214.75427" target-x="464" target-y="395.65723"></path><path d="M 662.00 605.04 L 653.16 489.46 L 652.83 487.57 L 652.18 485.85 L 651.22 484.27 L 649.98 482.88 L 648.52 481.77 L 646.80 480.90 L 465.44 410.56 L 464.68 410.58 L 464.15 411.13 L 464.08 411.55 L 469.81 515.96 L 469.81 515.96 L 662.00 605.04 Z" fill="#f88684" fill-rule="evenodd" group-id="2" id="路径-34" node-id="67" stroke="url(#linearGradient-10)" stroke-linecap="butt" stroke-width="1" target-height="194.48138" target-width="197.91522" target-x="464.08478" target-y="410.56042"></path><path d="M 495.00 501.00 L 659.71 581.68 L 659.71 606.00 L 495.00 529.27 Z" fill="#f57371" fill-rule="evenodd" group-id="2" id="路径-36" node-id="68" stroke-linecap="butt" stroke-width="1" target-height="105" target-width="164.7096" target-x="495" target-y="501"></path><path d="M 488.01 419.23 L 498.00 531.00 L 468.00 516.65 L 463.07 411.51 L 463.33 410.79 L 464.02 410.46 L 464.42 410.52 L 488.01 419.23 L 488.01 419.23 Z" fill="#f6655f" fill-rule="evenodd" group-id="2" id="路径-35" node-id="69" stroke-linecap="butt" stroke-width="1" target-height="120.53824" target-width="34.92932" target-x="463.07068" target-y="410.46176"></path><path d="M 527.69 514.31 L 531.82 518.17 L 535.42 522.26 L 538.53 526.60 L 541.16 531.19 L 543.34 536.04 L 545.02 540.99 L 546.21 546.04 L 546.91 551.23 L 547.12 556.46 L 546.82 561.64 L 546.03 566.80 L 544.73 571.96 L 542.93 576.94 L 540.63 581.75 L 537.79 586.40 L 534.39 590.92 L 530.53 595.05 L 526.44 598.66 L 522.11 601.76 L 517.51 604.39 L 512.66 606.57 L 507.72 608.25 L 502.66 609.44 L 497.48 610.14 L 492.24 610.35 L 487.06 610.06 L 481.90 609.26 L 476.74 607.96 L 471.76 606.17 L 466.96 603.86 L 462.30 601.02 L 457.78 597.63 L 453.65 593.77 L 450.05 589.67 L 446.94 585.34 L 444.31 580.75 L 442.13 575.89 L 440.45 570.95 L 439.27 565.90 L 438.56 560.71 L 438.35 555.48 L 438.65 550.29 L 439.44 545.13 L 440.75 539.98 L 442.54 535.00 L 444.84 530.19 L 447.68 525.53 L 451.08 521.01 L 454.94 516.88 L 459.03 513.28 L 463.36 510.18 L 467.96 507.55 L 472.81 505.37 L 477.75 503.69 L 482.81 502.50 L 488.00 501.80 L 493.23 501.59 L 498.41 501.88 L 503.57 502.67 L 508.73 503.98 L 513.71 505.77 L 518.52 508.08 L 523.17 510.91 L 527.69 514.31 Z" fill="#e6f3ff" fill-rule="nonzero" group-id="3" id="Oval" node-id="71" stroke-linecap="butt" stroke-width="1" target-height="108.76193" target-width="108.7619" target-x="438.3548" target-y="501.58768"></path><path d="M 493.61 506.47 L 498.63 506.29 L 503.50 506.59 L 508.25 507.35 L 512.90 508.57 L 517.42 510.24 L 521.70 512.30 L 525.76 514.77 L 529.61 517.64 L 533.15 520.87 L 536.35 524.43 L 539.22 528.34 L 541.76 532.63 L 543.85 537.16 L 545.43 541.73 L 546.53 546.38 L 547.17 551.11 L 547.34 555.89 L 547.04 560.60 L 546.30 565.27 L 545.08 569.90 L 543.43 574.38 L 541.33 578.68 L 538.78 582.81 L 535.76 586.79 L 532.33 590.44 L 528.68 593.65 L 524.77 596.44 L 520.60 598.84 L 516.21 600.83 L 511.71 602.37 L 507.08 603.48 L 502.30 604.14 L 497.49 604.35 L 492.68 604.08 L 487.86 603.33 L 483.00 602.09 L 478.30 600.35 L 473.92 598.23 L 469.82 595.72 L 466.01 592.82 L 462.47 589.56 L 459.32 586.03 L 456.53 582.21 L 454.08 578.09 L 452.06 573.76 L 450.48 569.26 L 449.34 564.55 L 448.65 559.62 L 448.48 554.53 L 448.80 549.63 L 449.60 544.89 L 450.87 540.28 L 452.59 535.80 L 454.69 531.58 L 457.18 527.60 L 460.07 523.84 L 463.30 520.37 L 466.82 517.25 L 470.65 514.46 L 474.80 512.00 L 479.15 509.96 L 483.72 508.36 L 488.54 507.20 L 493.63 506.47 L 493.61 506.47 Z M 492.76 496.54 L 487.85 497.18 L 483.15 498.16 L 478.63 499.50 L 474.29 501.17 L 468.71 503.93 L 463.54 507.18 L 458.74 510.94 L 454.36 515.17 L 450.46 519.77 L 447.03 524.79 L 444.12 530.12 L 441.79 535.73 L 440.02 541.66 L 439.11 546.20 L 438.57 550.84 L 438.41 555.60 L 438.63 560.50 L 439.26 565.36 L 440.25 570.02 L 441.59 574.50 L 443.27 578.81 L 446.04 584.34 L 449.32 589.46 L 453.10 594.21 L 457.35 598.55 L 461.99 602.41 L 467.04 605.81 L 472.42 608.68 L 478.07 610.98 L 484.05 612.73 L 488.62 613.63 L 493.30 614.16 L 498.10 614.31 L 503.04 614.09 L 507.95 613.45 L 512.65 612.46 L 517.17 611.13 L 521.52 609.45 L 527.10 606.70 L 532.27 603.44 L 537.06 599.69 L 541.44 595.46 L 545.34 590.85 L 548.77 585.84 L 551.68 580.51 L 554.01 574.89 L 555.78 568.97 L 556.69 564.43 L 557.23 559.79 L 557.39 555.03 L 557.17 550.13 L 556.54 545.27 L 555.55 540.60 L 554.21 536.13 L 552.53 531.81 L 549.76 526.29 L 546.49 521.17 L 542.70 516.42 L 538.45 512.08 L 533.81 508.22 L 528.76 504.82 L 523.39 501.95 L 517.73 499.64 L 511.76 497.90 L 507.18 497.00 L 502.50 496.47 L 497.70 496.31 L 492.76 496.54 Z" fill="#cf0404" fill-rule="nonzero" group-id="3" id="Shape" node-id="72" stroke-linecap="butt" stroke-width="1" target-height="117.9989" target-width="118.984314" target-x="438.4087" target-y="496.3139"></path><path d="M 574.46 628.92 L 573.19 628.80 L 572.08 628.20 L 534.13 597.13 L 533.33 596.13 L 532.99 594.97 L 533.12 593.76 L 533.74 592.63 L 534.09 592.22 L 535.12 591.43 L 536.31 591.10 L 537.55 591.22 L 538.70 591.82 L 576.64 622.88 L 577.45 623.89 L 577.78 625.05 L 577.65 626.26 L 577.03 627.38 L 576.69 627.80 L 575.69 628.57 L 574.46 628.92 Z" fill="#f7f8f8" fill-rule="nonzero" group-id="3" id="Path" node-id="73" stroke-linecap="butt" stroke-width="1" target-height="37.81909" target-width="44.79236" target-x="532.9905" target-y="591.10156"></path><path d="M 535.32 588.18 L 533.86 588.45 L 532.51 589.00 L 531.28 589.79 L 530.22 590.83 L 529.87 591.24 L 529.03 592.47 L 528.45 593.82 L 528.14 595.26 L 528.13 596.75 L 528.40 598.21 L 528.95 599.57 L 529.75 600.80 L 530.80 601.87 L 568.20 633.27 L 569.43 634.11 L 570.78 634.69 L 572.22 634.99 L 573.71 635.01 L 575.17 634.73 L 576.53 634.18 L 577.76 633.38 L 578.83 632.34 L 579.17 631.92 L 580.02 630.70 L 580.59 629.34 L 580.90 627.91 L 580.91 626.42 L 580.64 624.95 L 580.09 623.59 L 579.29 622.36 L 578.24 621.30 L 540.82 589.90 L 539.59 589.06 L 538.24 588.49 L 536.81 588.19 L 535.32 588.18 L 535.32 588.18 Z" fill="#cf0404" fill-rule="nonzero" group-id="3" id="Path" node-id="74" stroke-linecap="butt" stroke-width="1" target-height="46.832703" target-width="52.786743" target-x="528.1272" target-y="588.1769"></path><path d="M 550.20 550.74 L 550.39 556.35 L 550.04 561.75 L 549.16 566.98 L 547.77 572.05 L 545.87 576.99 L 543.55 581.64 L 540.81 586.02 L 537.63 590.17 L 534.07 593.99 L 530.18 597.43 L 525.96 600.50 L 521.38 603.21 L 516.58 605.45 L 511.54 607.21 L 506.23 608.49 L 500.61 609.28 L 494.95 609.48 L 489.50 609.14 L 484.23 608.28 L 479.11 606.90 L 474.13 605.03 L 469.44 602.74 L 465.02 600.03 L 460.85 596.88 L 456.99 593.36 L 453.53 589.51 L 450.44 585.34 L 447.71 580.80 L 445.46 576.05 L 443.69 571.05 L 442.41 565.80 L 441.62 560.24 L 441.43 554.63 L 441.78 549.22 L 442.65 544.00 L 444.05 538.93 L 445.95 533.99 L 448.26 529.34 L 451.01 524.95 L 454.19 520.81 L 457.75 516.99 L 461.63 513.55 L 465.85 510.48 L 470.44 507.77 L 475.24 505.53 L 480.28 503.77 L 485.59 502.49 L 491.20 501.69 L 496.87 501.50 L 502.32 501.84 L 507.59 502.70 L 512.71 504.07 L 517.69 505.95 L 522.38 508.24 L 526.80 510.95 L 530.97 514.09 L 534.83 517.62 L 538.29 521.46 L 541.38 525.64 L 544.10 530.17 L 546.36 534.93 L 548.13 539.92 L 549.41 545.18 L 550.20 550.74 Z" fill="#fc8e8b" fill-rule="nonzero" group-id="3" id="Oval" node-id="75" stroke-linecap="butt" stroke-width="1" target-height="107.9783" target-width="108.95996" target-x="441.42847" target-y="501.4985"></path><path d="M 491.53 505.65 L 496.55 505.47 L 501.42 505.77 L 506.17 506.52 L 510.82 507.75 L 515.34 509.42 L 519.62 511.48 L 523.68 513.95 L 527.53 516.82 L 531.07 520.05 L 534.27 523.61 L 537.14 527.52 L 539.69 531.81 L 541.77 536.34 L 543.35 540.91 L 544.45 545.55 L 545.09 550.29 L 545.26 555.07 L 544.96 559.78 L 544.22 564.44 L 543.00 569.08 L 541.35 573.56 L 539.25 577.86 L 536.70 581.99 L 533.68 585.97 L 530.25 589.62 L 526.60 592.82 L 522.69 595.62 L 518.52 598.02 L 514.13 600.01 L 509.63 601.55 L 505.00 602.66 L 500.22 603.32 L 495.41 603.53 L 490.60 603.26 L 485.78 602.51 L 480.92 601.26 L 476.22 599.52 L 471.84 597.40 L 467.75 594.90 L 463.93 592.00 L 460.39 588.74 L 457.24 585.21 L 454.45 581.39 L 452.00 577.27 L 449.98 572.94 L 448.40 568.43 L 447.26 563.73 L 446.57 558.80 L 446.40 553.71 L 446.72 548.81 L 447.52 544.06 L 448.79 539.46 L 450.51 534.98 L 452.61 530.76 L 455.10 526.78 L 457.99 523.02 L 461.22 519.55 L 464.74 516.43 L 468.57 513.64 L 472.72 511.18 L 477.07 509.14 L 481.65 507.54 L 486.46 506.37 L 491.55 505.65 L 491.53 505.65 Z M 490.68 495.72 L 485.77 496.35 L 481.07 497.34 L 476.55 498.67 L 472.21 500.35 L 466.63 503.11 L 461.46 506.36 L 456.67 510.12 L 452.28 514.35 L 448.38 518.95 L 444.95 523.96 L 442.04 529.30 L 439.71 534.91 L 437.94 540.84 L 437.03 545.37 L 436.49 550.02 L 436.33 554.78 L 436.55 559.68 L 437.18 564.54 L 438.17 569.20 L 439.51 573.68 L 441.19 577.99 L 443.96 583.52 L 447.24 588.64 L 451.02 593.39 L 455.27 597.73 L 459.91 601.59 L 464.97 604.99 L 470.34 607.86 L 475.99 610.16 L 481.97 611.91 L 486.54 612.81 L 491.22 613.33 L 496.02 613.49 L 500.96 613.27 L 505.87 612.63 L 510.57 611.64 L 515.09 610.31 L 519.44 608.63 L 525.02 605.87 L 530.19 602.62 L 534.98 598.86 L 539.36 594.64 L 543.26 590.03 L 546.70 585.02 L 549.60 579.68 L 551.93 574.07 L 553.70 568.15 L 554.61 563.61 L 555.15 558.97 L 555.31 554.20 L 555.09 549.31 L 554.46 544.44 L 553.47 539.78 L 552.13 535.30 L 550.45 530.99 L 547.68 525.47 L 544.41 520.34 L 540.62 515.59 L 536.37 511.25 L 531.73 507.39 L 526.68 503.99 L 521.31 501.12 L 515.65 498.82 L 509.68 497.07 L 505.10 496.18 L 500.42 495.65 L 495.62 495.49 L 490.68 495.72 Z" fill="url(#linearGradient-11)" fill-rule="nonzero" group-id="3" id="Shape" node-id="76" stroke-linecap="butt" stroke-width="1" target-height="117.9989" target-width="118.984344" target-x="436.32913" target-y="495.492"></path><path d="M 576.44 628.75 L 575.17 628.62 L 574.06 628.02 L 536.12 596.96 L 535.32 595.96 L 534.98 594.79 L 535.11 593.59 L 535.73 592.46 L 536.08 592.05 L 537.11 591.26 L 538.30 590.93 L 539.54 591.05 L 540.69 591.65 L 578.62 622.74 L 579.42 623.71 L 579.78 624.91 L 579.64 626.15 L 579.02 627.25 L 578.67 627.65 L 577.67 628.41 L 576.44 628.75 Z" fill="#f7f8f8" fill-rule="nonzero" group-id="3" id="Path" node-id="77" stroke-linecap="butt" stroke-width="1" target-height="37.819946" target-width="44.79541" target-x="534.98285" target-y="590.9275"></path><path d="M 539.31 587.83 L 537.85 588.10 L 536.49 588.65 L 535.26 589.44 L 534.20 590.48 L 533.85 590.89 L 533.01 592.12 L 532.43 593.47 L 532.13 594.91 L 532.11 596.40 L 532.39 597.86 L 532.94 599.23 L 533.74 600.46 L 534.78 601.52 L 572.19 632.92 L 573.42 633.76 L 574.77 634.34 L 576.20 634.64 L 577.69 634.66 L 579.16 634.39 L 580.52 633.84 L 581.75 633.03 L 582.81 631.99 L 583.16 631.58 L 584.00 630.35 L 584.58 629.00 L 584.88 627.56 L 584.90 626.07 L 584.62 624.61 L 584.07 623.24 L 583.27 622.01 L 582.23 620.95 L 544.80 589.55 L 543.58 588.72 L 542.23 588.14 L 540.79 587.84 L 539.31 587.83 Z" fill="url(#linearGradient-12)" fill-rule="nonzero" group-id="3" id="Path" node-id="78" stroke-linecap="butt" stroke-width="1" target-height="46.832764" target-width="52.786804" target-x="532.11194" target-y="587.82825"></path><path d="M 474.78 526.22 L 473.13 527.62 L 471.51 529.19 L 469.32 531.66 L 467.18 534.51 L 465.00 538.13 L 463.75 540.73 L 462.69 543.62 L 461.83 546.82 L 461.32 550.08 L 461.20 553.62 L 461.50 557.49" fill="#fdc7c5" fill-rule="nonzero" group-id="3" id="Path" node-id="79" stroke="#fdc7c5" stroke-linecap="round" stroke-width="2" target-height="31.276428" target-width="13.577026" target-x="461.2" target-y="526.218"></path><path d="M 492.04 569.66 L 492.04 568.28 C 492.04 566.66 492.40 565.22 493.18 563.90 C 493.78 562.82 494.68 561.74 496.00 560.60 C 498.64 558.26 500.26 556.70 500.86 555.98 C 502.36 554.00 503.14 551.66 503.14 548.96 C 503.14 545.36 502.00 542.54 499.78 540.50 C 497.44 538.34 494.38 537.32 490.54 537.32 C 486.22 537.32 482.86 538.64 480.46 541.28 C 478.06 543.80 476.92 547.16 476.92 551.36 L 481.66 551.36 C 481.66 548.42 482.32 546.14 483.64 544.46 C 485.08 542.48 487.30 541.52 490.30 541.52 C 492.82 541.52 494.80 542.18 496.18 543.62 C 497.50 544.94 498.22 546.80 498.22 549.20 C 498.22 550.88 497.62 552.44 496.42 553.94 C 496.06 554.42 495.34 555.14 494.38 556.10 C 491.14 558.98 489.16 561.26 488.32 563.06 C 487.60 564.56 487.24 566.30 487.24 568.28 L 487.24 569.66 L 492.04 569.66 Z M 489.64 581.00 C 490.66 581.00 491.50 580.64 492.22 579.98 C 492.94 579.32 493.30 578.48 493.30 577.40 C 493.30 576.38 492.94 575.54 492.28 574.88 C 491.56 574.16 490.66 573.86 489.64 573.86 C 488.62 573.86 487.78 574.16 487.06 574.88 C 486.34 575.54 486.04 576.38 486.04 577.40 C 486.04 578.42 486.34 579.26 487.06 579.98 C 487.78 580.64 488.62 581.00 489.64 581.00 Z" fill="#ffffff" fill-rule="nonzero" id="？" node-id="80" stroke="none" target-height="43.679993" target-width="26.220001" target-x="476.92" target-y="537.32"></path></svg>