<?xml version="1.0" standalone="no"?><!DOCTYPE svg PUBLIC "-//W3C//DTD SVG 1.1//EN" "http://www.w3.org/Graphics/SVG/1.1/DTD/svg11.dtd"><svg height="1024" legacy-metrics="false" node-id="1" sillyvg="true" template-height="1024" template-width="1024" version="1.1" viewBox="0 0 1024 1024" width="1024" xmlns="http://www.w3.org/2000/svg" xmlns:xlink="http://www.w3.org/1999/xlink"><defs node-id="71"><linearGradient gradientUnits="objectBoundingBox" id="linearGradient-1" node-id="5" x1="0.5" x2="0.5" y1="1.0012227" y2="-0.0005798328"><stop offset="0" stop-color="#fdf5f7" stop-opacity="0"></stop><stop offset="1" stop-color="#fad4d2"></stop></linearGradient><linearGradient gradientUnits="objectBoundingBox" id="linearGradient-2" node-id="8" x1="0.5008439" x2="0.5008439" y1="1" y2="0.00006494738"><stop offset="0" stop-color="#ffffff" stop-opacity="0.1"></stop><stop offset="1" stop-color="#fdeceb"></stop></linearGradient><linearGradient gradientUnits="objectBoundingBox" id="linearGradient-3" node-id="11" x1="0.5000459" x2="0.5000459" y1="0.999312" y2="-0.00081127736"><stop offset="0" stop-color="#ffffff" stop-opacity="0.1"></stop><stop offset="1" stop-color="#fad6d4"></stop></linearGradient><linearGradient gradientUnits="objectBoundingBox" id="linearGradient-4" node-id="14" x1="0.5" x2="0.5" y1="1" y2="0"><stop offset="0" stop-color="#ffffff" stop-opacity="0.1"></stop><stop offset="0.13" stop-color="#fefcfb"></stop><stop offset="0.41" stop-color="#fefcfb"></stop><stop offset="0.81" stop-color="#f9d8d5"></stop><stop offset="1" stop-color="#f9d8d5"></stop></linearGradient><linearGradient gradientUnits="objectBoundingBox" id="linearGradient-5" node-id="20" x1="0.33764496" x2="0.5" y1="0.5659558" y2="0.4230797"><stop offset="0" stop-color="#fff3f2" stop-opacity="0"></stop><stop offset="1" stop-color="#ffe2e0"></stop></linearGradient><linearGradient gradientUnits="objectBoundingBox" id="linearGradient-6" node-id="23" x1="0" x2="1" y1="0.5" y2="0.5"><stop offset="0" stop-color="#f69896"></stop><stop offset="1" stop-color="#f65551"></stop></linearGradient><linearGradient gradientUnits="objectBoundingBox" id="linearGradient-7" node-id="26" x1="0.5" x2="0.5" y1="0.8170027" y2="0.26987582"><stop offset="0" stop-color="#f36f6a"></stop><stop offset="1" stop-color="#f8a2a0"></stop></linearGradient><linearGradient gradientUnits="objectBoundingBox" id="linearGradient-8" node-id="29" x1="0.5" x2="0.5" y1="0" y2="1"><stop offset="0" stop-color="#f78483"></stop><stop offset="1" stop-color="#f77671"></stop></linearGradient><linearGradient gradientUnits="objectBoundingBox" id="linearGradient-9" node-id="32" x1="0.5" x2="0.5809784" y1="0.46572426" y2="0.56795645"><stop offset="0" stop-color="#f8a2a0"></stop><stop offset="1" stop-color="#f94e47"></stop></linearGradient><linearGradient gradientUnits="objectBoundingBox" id="linearGradient-10" node-id="35" x1="0.89560765" x2="0.1835975" y1="0.43563986" y2="0.56436014"><stop offset="0" stop-color="#e99b9a"></stop><stop offset="1" stop-color="#f3c0bf"></stop></linearGradient><linearGradient gradientUnits="objectBoundingBox" id="linearGradient-11" node-id="38" x1="0.8353254" x2="0.4003542" y1="0.05792211" y2="0.8764155"><stop offset="0" stop-color="#ea9d9c"></stop><stop offset="1" stop-color="#f2bbba"></stop></linearGradient></defs><path d="M 0.00 0.00 L 1024.00 0.00 L 1024.00 1024.00 L 0.00 1024.00 Z" fill="#ffffff" fill-rule="evenodd" node-id="147" stroke="none" target-height="1024" target-width="1024" target-x="0" target-y="0"></path><g node-id="149"><path d="M 101.34 606.00 L 107.00 667.00 L 72.00 662.93 Z" fill="#fad4d2" fill-rule="nonzero" group-id="1" id="路径" node-id="44" stroke-linecap="butt" stroke-width="1" target-height="61" target-width="35" target-x="72" target-y="606"></path><path d="M 101.00 606.00 L 138.00 654.21 L 106.67 667.00 Z" fill="#fdc6c3" fill-rule="nonzero" group-id="1" id="路径" node-id="45" stroke-linecap="butt" stroke-width="1" target-height="61" target-width="37" target-x="101" target-y="606"></path><path d="M 167.23 342.03 L 165.99 337.10 L 164.26 332.51 L 162.02 328.22 L 159.30 324.21 L 156.20 320.61 L 152.70 317.37 L 148.85 314.56 L 144.72 312.23 L 140.29 310.35 L 135.68 309.01 L 130.88 308.23 L 125.85 308.01 L 121.79 308.18 L 117.85 308.73 L 113.99 309.63 L 110.21 310.90 L 106.56 312.52 L 103.10 314.46 L 99.81 316.73 L 96.68 319.35 L 93.24 318.00 L 89.74 317.04 L 86.16 316.46 L 82.48 316.26 L 78.58 316.44 L 74.87 317.03 L 71.32 318.02 L 67.90 319.43 L 64.65 321.21 L 61.67 323.31 L 58.93 325.73 L 56.43 328.48 L 54.25 331.49 L 52.44 334.73 L 50.97 338.22 L 49.86 342.00 L 45.97 343.19 L 42.44 344.87 L 39.22 347.06 L 36.35 349.69 L 33.92 352.66 L 31.90 356.01 L 30.39 359.61 L 29.42 363.43 L 29.00 367.51 L 29.37 371.24 L 30.18 374.73 L 31.43 378.03 L 33.09 381.14 L 35.09 383.96 L 37.44 386.51 L 40.09 388.74 L 42.98 390.61 L 46.15 392.11 L 49.48 393.19 L 52.98 393.82 L 56.68 393.99 L 160.32 393.99 L 164.02 393.82 L 167.52 393.20 L 170.86 392.12 L 174.02 390.62 L 176.92 388.75 L 179.57 386.52 L 181.92 383.97 L 183.92 381.15 L 185.58 378.04 L 186.82 374.74 L 187.63 371.24 L 188.00 367.51 L 187.58 363.44 L 186.62 359.63 L 185.11 356.04 L 183.11 352.69 L 180.68 349.72 L 177.82 347.09 L 174.62 344.91 L 171.10 343.22 L 167.23 342.03 L 167.23 342.03 Z" fill="url(#linearGradient-1)" fill-rule="nonzero" group-id="1" id="路径" node-id="46" stroke-linecap="butt" stroke-width="1" target-height="85.984924" target-width="159" target-x="29" target-y="308.00684"></path><path d="M 768.71 203.10 L 766.77 200.39 L 764.60 197.95 L 762.19 195.78 L 759.57 193.88 L 756.79 192.28 L 753.84 190.98 L 750.77 190.00 L 747.60 189.35 L 744.31 189.05 L 742.22 186.19 L 739.88 183.65 L 737.29 181.40 L 734.47 179.45 L 731.48 177.85 L 728.31 176.58 L 725.02 175.67 L 721.63 175.15 L 718.12 175.00 L 713.91 175.25 L 709.86 176.04 L 705.94 177.37 L 702.22 179.21 L 698.78 181.52 L 695.60 184.34 L 692.83 183.60 L 690.02 183.15 L 687.16 183.00 L 683.82 183.21 L 680.69 183.76 L 677.74 184.64 L 674.95 185.85 L 671.46 187.94 L 668.48 190.45 L 665.94 193.38 L 664.37 195.83 L 663.17 198.41 L 662.32 201.15 L 661.82 204.07 L 658.53 205.13 L 655.54 206.61 L 652.80 208.50 L 650.37 210.76 L 648.29 213.31 L 646.57 216.17 L 645.26 219.25 L 644.40 222.51 L 644.00 225.99 L 644.24 229.14 L 644.91 232.11 L 646.01 234.93 L 647.49 237.59 L 649.30 240.02 L 651.46 242.25 L 653.89 244.19 L 656.57 245.83 L 659.52 247.19 L 662.62 248.17 L 665.88 248.78 L 669.34 249.00 L 766.66 249.00 L 770.17 248.78 L 773.46 248.17 L 776.56 247.19 L 779.51 245.83 L 782.19 244.19 L 784.61 242.25 L 786.76 240.02 L 788.55 237.59 L 790.02 234.93 L 791.10 232.11 L 791.76 229.14 L 792.00 225.99 L 791.82 222.98 L 791.25 220.15 L 790.31 217.47 L 788.97 214.91 L 786.69 211.80 L 783.93 209.10 L 780.62 206.77 L 777.92 205.38 L 775.06 204.30 L 772.00 203.54 L 768.71 203.10 Z" fill="url(#linearGradient-2)" fill-rule="nonzero" group-id="1" id="路径" node-id="47" stroke-linecap="butt" stroke-width="1" target-height="73.99519" target-width="147.9964" target-x="644" target-y="175.0048"></path><path d="M 949.62 171.74 L 947.00 166.95 L 944.03 162.54 L 940.69 158.47 L 936.99 154.74 L 932.95 151.35 L 928.67 148.38 L 924.14 145.81 L 919.33 143.65 L 914.35 141.93 L 909.24 140.69 L 903.97 139.93 L 898.51 139.64 L 892.46 139.98 L 886.56 140.95 L 880.78 142.54 L 875.21 144.73 L 869.91 147.49 L 864.86 150.85 L 862.51 146.71 L 859.89 142.86 L 857.01 139.30 L 853.86 136.00 L 849.27 132.01 L 844.35 128.57 L 839.08 125.67 L 833.53 123.34 L 827.78 121.61 L 821.80 120.49 L 817.25 120.07 L 812.67 120.03 L 808.03 120.36 L 803.32 121.08 L 798.68 122.21 L 794.26 123.66 L 790.04 125.45 L 786.00 127.57 L 780.90 130.88 L 776.24 134.67 L 772.00 138.93 L 768.23 143.62 L 764.99 148.67 L 762.26 154.11 L 760.61 158.36 L 759.31 162.75 L 758.36 167.30 L 757.76 172.02 L 752.80 173.85 L 748.17 176.03 L 743.83 178.58 L 739.76 181.50 L 735.96 184.77 L 732.50 188.30 L 729.38 192.11 L 726.58 196.19 L 724.15 200.51 L 722.12 204.98 L 720.47 209.64 L 719.21 214.50 L 718.39 219.43 L 718.03 224.45 L 718.11 229.57 L 718.66 234.81 L 719.71 239.98 L 721.17 244.89 L 723.02 249.56 L 725.29 254.02 L 727.94 258.28 L 730.91 262.23 L 734.19 265.90 L 737.81 269.28 L 741.70 272.34 L 745.82 275.03 L 750.18 277.37 L 754.80 279.35 L 759.55 280.92 L 764.45 282.05 L 769.53 282.74 L 774.80 283.00 L 933.05 283.00 L 938.36 282.76 L 943.46 282.07 L 948.40 280.94 L 953.17 279.37 L 957.82 277.38 L 962.20 275.04 L 966.33 272.33 L 970.25 269.25 L 973.88 265.84 L 977.17 262.15 L 980.14 258.17 L 982.80 253.89 L 985.06 249.40 L 986.91 244.69 L 988.35 239.75 L 989.38 234.55 L 989.91 229.27 L 989.96 224.12 L 989.56 219.08 L 988.70 214.13 L 987.40 209.26 L 985.71 204.59 L 983.63 200.10 L 981.14 195.79 L 978.29 191.71 L 975.12 187.92 L 971.61 184.41 L 967.74 181.16 L 963.62 178.27 L 959.23 175.76 L 954.55 173.62 L 949.54 171.85 L 949.62 171.74 Z" fill="url(#linearGradient-3)" fill-rule="nonzero" group-id="1" id="路径" node-id="48" stroke-linecap="butt" stroke-width="1" target-height="162.97498" target-width="271.93683" target-x="718.0257" target-y="120.02502"></path><g node-id="152"><path d="M 1024.00 742.00 L 1023.72 747.26 L 1022.92 752.49 L 1021.58 757.74 L 1019.68 763.02 L 1017.19 768.35 L 1014.07 773.75 L 1009.99 779.63 L 1005.12 785.58 L 999.39 791.62 L 992.72 797.76 L 985.03 803.99 L 977.44 809.50 L 969.00 815.04 L 959.66 820.62 L 949.34 826.24 L 937.98 831.88 L 924.12 838.13 L 908.91 844.34 L 892.24 850.48 L 874.04 856.55 L 854.73 862.35 L 834.25 867.89 L 812.55 873.15 L 790.76 877.88 L 768.00 882.30 L 744.23 886.38 L 720.41 889.97 L 695.82 893.20 L 670.45 896.05 L 645.04 898.44 L 619.09 900.42 L 592.58 901.98 L 566.05 903.10 L 539.19 903.77 L 512.00 904.00 L 484.81 903.77 L 457.95 903.10 L 431.42 901.98 L 404.91 900.42 L 378.96 898.44 L 353.55 896.05 L 328.18 893.20 L 303.59 889.97 L 279.77 886.38 L 256.00 882.30 L 233.24 877.88 L 211.45 873.15 L 189.75 867.89 L 169.27 862.35 L 149.96 856.55 L 131.76 850.48 L 115.09 844.34 L 99.88 838.13 L 86.02 831.88 L 74.66 826.24 L 64.34 820.62 L 55.00 815.04 L 46.56 809.50 L 38.97 803.99 L 31.28 797.76 L 24.61 791.62 L 18.88 785.58 L 14.01 779.63 L 9.93 773.75 L 6.81 768.35 L 4.32 763.02 L 2.42 757.74 L 1.08 752.49 L 0.28 747.26 L 0.00 742.00 L 0.28 736.74 L 1.08 731.51 L 2.42 726.26 L 4.32 720.98 L 6.81 715.65 L 9.93 710.25 L 14.01 704.37 L 18.88 698.42 L 24.61 692.38 L 31.28 686.24 L 38.97 680.01 L 46.56 674.50 L 55.00 668.96 L 64.34 663.38 L 74.66 657.76 L 86.02 652.12 L 99.88 645.87 L 115.09 639.66 L 131.76 633.52 L 149.96 627.45 L 169.27 621.65 L 189.75 616.11 L 211.45 610.85 L 233.24 606.12 L 256.00 601.70 L 279.77 597.62 L 303.59 594.03 L 328.18 590.80 L 353.55 587.95 L 378.96 585.56 L 404.91 583.58 L 431.42 582.02 L 457.95 580.90 L 484.81 580.23 L 512.00 580.00 L 539.19 580.23 L 566.05 580.90 L 592.58 582.02 L 619.09 583.58 L 645.04 585.56 L 670.45 587.95 L 695.82 590.80 L 720.41 594.03 L 744.23 597.62 L 768.00 601.70 L 790.76 606.12 L 812.55 610.85 L 834.25 616.11 L 854.73 621.65 L 874.04 627.45 L 892.24 633.52 L 908.91 639.66 L 924.12 645.87 L 937.98 652.12 L 949.34 657.76 L 959.66 663.38 L 969.00 668.96 L 977.44 674.50 L 985.03 680.01 L 992.72 686.24 L 999.39 692.38 L 1005.12 698.42 L 1009.99 704.37 L 1014.07 710.25 L 1017.19 715.65 L 1019.68 720.98 L 1021.58 726.26 L 1022.92 731.51 L 1023.72 736.74 L 1024.00 742.00 Z" fill="url(#linearGradient-4)" fill-opacity="0.40774465" fill-rule="nonzero" group-id="1,4" id="椭圆形" node-id="49" stroke-linecap="butt" stroke-opacity="0.40774465" stroke-width="1" target-height="324" target-width="1024" target-x="0" target-y="580"></path></g><path d="M 906.00 606.00 L 901.13 670.00 L 865.00 659.52 Z" fill="#fad4d2" fill-rule="nonzero" group-id="1" id="路径" node-id="50" stroke-linecap="butt" stroke-width="1" target-height="64" target-width="41" target-x="865" target-y="606"></path><path d="M 904.85 606.00 L 935.00 662.39 L 900.00 670.00 Z" fill="#fdc6c3" fill-rule="nonzero" group-id="1" id="路径" node-id="51" stroke-linecap="butt" stroke-width="1" target-height="64" target-width="35" target-x="900" target-y="606"></path><path d="M 201.37 594.00 L 206.00 642.00 L 177.00 638.81 Z" fill="#f7d9d7" fill-rule="nonzero" group-id="1" id="路径" node-id="52" stroke-linecap="butt" stroke-width="1" target-height="48" target-width="29" target-x="177" target-y="594"></path><path d="M 200.00 594.00 L 230.00 631.89 L 204.55 642.00 Z" fill="#ffccc8" fill-rule="nonzero" group-id="1" id="路径" node-id="53" stroke-linecap="butt" stroke-width="1" target-height="48" target-width="30" target-x="200" target-y="594"></path><path d="M 148.48 564.00 L 158.00 665.00 L 94.00 658.71 Z" fill="#fad4d2" fill-rule="nonzero" group-id="1" id="路径" node-id="54" stroke-linecap="butt" stroke-width="1" target-height="101" target-width="64" target-x="94" target-y="564"></path><path d="M 147.00 564.00 L 214.00 643.37 L 156.53 665.00 Z" fill="#fdc6c3" fill-rule="nonzero" group-id="1" id="路径" node-id="55" stroke-linecap="butt" stroke-width="1" target-height="101" target-width="67" target-x="147" target-y="564"></path></g><path d="M 689.25 668.00 L 348.00 680.00 L 221.14 804.00 L 431.41 851.61 Z" fill="url(#linearGradient-5)" fill-rule="evenodd" id="路径-24" node-id="56" stroke="none" target-height="183.6051" target-width="468.11133" target-x="221.13976" target-y="668"></path><path d="M 689.25 665.00 L 506.52 636.66 L 506.52 444.00 L 689.25 472.34 Z" fill="#f66e6b" fill-rule="nonzero" group-id="2" id="路径" node-id="58" stroke-linecap="butt" stroke-width="1" target-height="221" target-width="182.73163" target-x="506.51947" target-y="444"></path><path d="M 346.75 667.87 L 506.52 636.66 L 506.52 444.00 L 346.75 474.79 Z" fill="#f8a4a2" fill-rule="nonzero" group-id="2" id="路径" node-id="59" stroke-linecap="butt" stroke-width="1" target-height="223.87012" target-width="159.77057" target-x="346.7489" target-y="444"></path><path d="M 531.39 695.61 L 345.79 667.28 L 345.79 474.61 L 530.44 502.51 Z" fill="url(#linearGradient-6)" fill-rule="nonzero" group-id="2" id="路径" node-id="60" stroke-linecap="butt" stroke-width="1" target-height="221.00003" target-width="185.60172" target-x="345.7922" target-y="474.61472"></path><path d="M 479.27 549.24 L 297.00 520.71 L 346.26 473.66 L 530.44 502.51 Z" fill="url(#linearGradient-7)" fill-rule="nonzero" group-id="2" id="路径" node-id="61" stroke-linecap="butt" stroke-width="1" target-height="75.58008" target-width="233.43726" target-x="297" target-y="473.65802"></path><path d="M 530.44 502.51 L 530.44 695.61 L 689.25 665.00 L 689.25 472.70 Z" fill="url(#linearGradient-8)" fill-rule="evenodd" group-id="2" id="路径-44" node-id="62" stroke-linecap="butt" stroke-width="1" target-height="222.91345" target-width="158.81384" target-x="530.43726" target-y="472.7013"></path><path d="M 579.80 549.24 L 739.00 519.48 L 689.25 472.70 L 531.39 502.19 L 579.80 549.24 Z" fill="url(#linearGradient-9)" fill-rule="evenodd" group-id="2" id="路径-43" node-id="63" stroke-linecap="butt" stroke-width="1" target-height="76.536804" target-width="207.60608" target-x="531.3939" target-y="472.7013"></path><path d="M 497.34 497.00 C 528.08 443.00 566.13 407.67 611.50 391.00" fill="none" id="线路" node-id="64" stroke="#f66e6b" stroke-dasharray="3 3" stroke-linecap="butt" stroke-width="2" target-height="106" target-width="114.15958" target-x="497.34042" target-y="391"></path><path d="M 619.62 380.96 L 619.62 398.71 L 660.42 361.76 Z" fill="#da7574" fill-rule="evenodd" group-id="3" id="路径-46" node-id="66" stroke-linecap="butt" stroke-width="1" target-height="36.94638" target-width="40.798706" target-x="619.6211" target-y="361.76236"></path><path d="M 619.62 380.96 L 606.92 373.34 L 660.42 361.76 Z" fill="url(#linearGradient-10)" fill-rule="evenodd" group-id="3" id="路径-47" node-id="67" stroke-linecap="butt" stroke-width="1" target-height="19.19513" target-width="53.501648" target-x="606.91815" target-y="361.76236"></path><path d="M 619.62 398.71 L 633.67 395.69 L 628.93 390.21 Z" fill="#e0605c" fill-rule="evenodd" group-id="3" id="路径-49" node-id="68" stroke-linecap="butt" stroke-width="1" target-height="8.495117" target-width="14.047913" target-x="619.6211" target-y="390.21362"></path><path d="M 624.47 383.93 L 636.92 401.30 L 660.42 361.76 Z" fill="url(#linearGradient-11)" fill-rule="evenodd" group-id="3" id="路径-48" node-id="69" stroke-linecap="butt" stroke-width="1" target-height="39.535767" target-width="35.948425" target-x="624.4714" target-y="361.76236"></path></svg>