<?xml version="1.0" standalone="no"?><!DOCTYPE svg PUBLIC "-//W3C//DTD SVG 1.1//EN" "http://www.w3.org/Graphics/SVG/1.1/DTD/svg11.dtd"><svg height="1024" legacy-metrics="false" node-id="1" sillyvg="true" template-height="1024" template-width="1024" version="1.1" viewBox="0 0 1024 1024" width="1024" xmlns="http://www.w3.org/2000/svg" xmlns:xlink="http://www.w3.org/1999/xlink"><defs node-id="71"><linearGradient gradientUnits="objectBoundingBox" id="linearGradient-1" node-id="5" x1="0.5" x2="0.5" y1="1.0012227" y2="-0.0005798328"><stop offset="0" stop-color="#fdf5f7" stop-opacity="0"></stop><stop offset="1" stop-color="#fad4d2"></stop></linearGradient><linearGradient gradientUnits="objectBoundingBox" id="linearGradient-2" node-id="8" x1="0.5008439" x2="0.5008439" y1="1" y2="0.00006494738"><stop offset="0" stop-color="#ffffff" stop-opacity="0.1"></stop><stop offset="1" stop-color="#fdeceb"></stop></linearGradient><linearGradient gradientUnits="objectBoundingBox" id="linearGradient-3" node-id="11" x1="0.5000459" x2="0.5000459" y1="0.999312" y2="-0.00081127736"><stop offset="0" stop-color="#ffffff" stop-opacity="0.1"></stop><stop offset="1" stop-color="#fad6d4"></stop></linearGradient><linearGradient gradientUnits="objectBoundingBox" id="linearGradient-4" node-id="14" x1="0.5" x2="0.5" y1="1" y2="0"><stop offset="0" stop-color="#ffffff" stop-opacity="0.1"></stop><stop offset="0.13" stop-color="#fefcfb"></stop><stop offset="0.41" stop-color="#fefcfb"></stop><stop offset="0.81" stop-color="#f9d8d5"></stop><stop offset="1" stop-color="#f9d8d5"></stop></linearGradient><linearGradient gradientUnits="objectBoundingBox" id="linearGradient-5" node-id="20" x1="0.5" x2="0.5" y1="0" y2="1"><stop offset="0" stop-color="#f8d0ce"></stop><stop offset="1" stop-color="#e59490"></stop></linearGradient><linearGradient gradientUnits="objectBoundingBox" id="linearGradient-6" node-id="23" x1="0.5" x2="0.5" y1="0" y2="1"><stop offset="0" stop-color="#edaeab"></stop><stop offset="1" stop-color="#ec463d"></stop></linearGradient><linearGradient gradientUnits="objectBoundingBox" id="linearGradient-7" node-id="26" x1="0.5" x2="0.5" y1="0" y2="1"><stop offset="0" stop-color="#f7cecb"></stop><stop offset="1" stop-color="#f76662"></stop></linearGradient><linearGradient gradientUnits="objectBoundingBox" id="linearGradient-8" node-id="29" x1="0.5" x2="0.18" y1="0" y2="1"><stop offset="0" stop-color="#eb5654"></stop><stop offset="1" stop-color="#f78785"></stop></linearGradient><linearGradient gradientUnits="objectBoundingBox" id="linearGradient-9" node-id="32" x1="0.3318383" x2="0.8170871" y1="0.22423337" y2="0.8178466"><stop offset="0" stop-color="#f9b0ae"></stop><stop offset="1" stop-color="#f65651"></stop></linearGradient><linearGradient gradientUnits="objectBoundingBox" id="linearGradient-10" node-id="35" x1="0.12705962" x2="0.5" y1="0.58658373" y2="0.43647897"><stop offset="0" stop-color="#fff3f2" stop-opacity="0"></stop><stop offset="1" stop-color="#ffe2e0"></stop></linearGradient></defs><path d="M 0.00 0.00 L 1024.00 0.00 L 1024.00 1024.00 L 0.00 1024.00 Z" fill="#ffffff" fill-rule="evenodd" node-id="141" stroke="none" target-height="1024" target-width="1024" target-x="0" target-y="0"></path><g node-id="143"><path d="M 101.34 606.00 L 107.00 667.00 L 72.00 662.93 Z" fill="#fad4d2" fill-rule="nonzero" group-id="1" id="路径" node-id="41" stroke-linecap="butt" stroke-width="1" target-height="61" target-width="35" target-x="72" target-y="606"></path><path d="M 101.00 606.00 L 138.00 654.21 L 106.67 667.00 Z" fill="#fdc6c3" fill-rule="nonzero" group-id="1" id="路径" node-id="42" stroke-linecap="butt" stroke-width="1" target-height="61" target-width="37" target-x="101" target-y="606"></path><path d="M 167.23 342.03 L 165.99 337.10 L 164.26 332.51 L 162.02 328.22 L 159.30 324.21 L 156.20 320.61 L 152.70 317.37 L 148.85 314.56 L 144.72 312.23 L 140.29 310.35 L 135.68 309.01 L 130.88 308.23 L 125.85 308.01 L 121.79 308.18 L 117.85 308.73 L 113.99 309.63 L 110.21 310.90 L 106.56 312.52 L 103.10 314.46 L 99.81 316.73 L 96.68 319.35 L 93.24 318.00 L 89.74 317.04 L 86.16 316.46 L 82.48 316.26 L 78.58 316.44 L 74.87 317.03 L 71.32 318.02 L 67.90 319.43 L 64.65 321.21 L 61.67 323.31 L 58.93 325.73 L 56.43 328.48 L 54.25 331.49 L 52.44 334.73 L 50.97 338.22 L 49.86 342.00 L 45.97 343.19 L 42.44 344.87 L 39.22 347.06 L 36.35 349.69 L 33.92 352.66 L 31.90 356.01 L 30.39 359.61 L 29.42 363.43 L 29.00 367.51 L 29.37 371.24 L 30.18 374.73 L 31.43 378.03 L 33.09 381.14 L 35.09 383.96 L 37.44 386.51 L 40.09 388.74 L 42.98 390.61 L 46.15 392.11 L 49.48 393.19 L 52.98 393.82 L 56.68 393.99 L 160.32 393.99 L 164.02 393.82 L 167.52 393.20 L 170.86 392.12 L 174.02 390.62 L 176.92 388.75 L 179.57 386.52 L 181.92 383.97 L 183.92 381.15 L 185.58 378.04 L 186.82 374.74 L 187.63 371.24 L 188.00 367.51 L 187.58 363.44 L 186.62 359.63 L 185.11 356.04 L 183.11 352.69 L 180.68 349.72 L 177.82 347.09 L 174.62 344.91 L 171.10 343.22 L 167.23 342.03 L 167.23 342.03 Z" fill="url(#linearGradient-1)" fill-rule="nonzero" group-id="1" id="路径" node-id="43" stroke-linecap="butt" stroke-width="1" target-height="85.984924" target-width="159" target-x="29" target-y="308.00684"></path><path d="M 768.71 203.10 L 766.77 200.39 L 764.60 197.95 L 762.19 195.78 L 759.57 193.88 L 756.79 192.28 L 753.84 190.98 L 750.77 190.00 L 747.60 189.35 L 744.31 189.05 L 742.22 186.19 L 739.88 183.65 L 737.29 181.40 L 734.47 179.45 L 731.48 177.85 L 728.31 176.58 L 725.02 175.67 L 721.63 175.15 L 718.12 175.00 L 713.91 175.25 L 709.86 176.04 L 705.94 177.37 L 702.22 179.21 L 698.78 181.52 L 695.60 184.34 L 692.83 183.60 L 690.02 183.15 L 687.16 183.00 L 683.82 183.21 L 680.69 183.76 L 677.74 184.64 L 674.95 185.85 L 671.46 187.94 L 668.48 190.45 L 665.94 193.38 L 664.37 195.83 L 663.17 198.41 L 662.32 201.15 L 661.82 204.07 L 658.53 205.13 L 655.54 206.61 L 652.80 208.50 L 650.37 210.76 L 648.29 213.31 L 646.57 216.17 L 645.26 219.25 L 644.40 222.51 L 644.00 225.99 L 644.24 229.14 L 644.91 232.11 L 646.01 234.93 L 647.49 237.59 L 649.30 240.02 L 651.46 242.25 L 653.89 244.19 L 656.57 245.83 L 659.52 247.19 L 662.62 248.17 L 665.88 248.78 L 669.34 249.00 L 766.66 249.00 L 770.17 248.78 L 773.46 248.17 L 776.56 247.19 L 779.51 245.83 L 782.19 244.19 L 784.61 242.25 L 786.76 240.02 L 788.55 237.59 L 790.02 234.93 L 791.10 232.11 L 791.76 229.14 L 792.00 225.99 L 791.82 222.98 L 791.25 220.15 L 790.31 217.47 L 788.97 214.91 L 786.69 211.80 L 783.93 209.10 L 780.62 206.77 L 777.92 205.38 L 775.06 204.30 L 772.00 203.54 L 768.71 203.10 Z" fill="url(#linearGradient-2)" fill-rule="nonzero" group-id="1" id="路径" node-id="44" stroke-linecap="butt" stroke-width="1" target-height="73.99519" target-width="147.9964" target-x="644" target-y="175.0048"></path><path d="M 949.62 171.74 L 947.00 166.95 L 944.03 162.54 L 940.69 158.47 L 936.99 154.74 L 932.95 151.35 L 928.67 148.38 L 924.14 145.81 L 919.33 143.65 L 914.35 141.93 L 909.24 140.69 L 903.97 139.93 L 898.51 139.64 L 892.46 139.98 L 886.56 140.95 L 880.78 142.54 L 875.21 144.73 L 869.91 147.49 L 864.86 150.85 L 862.51 146.71 L 859.89 142.86 L 857.01 139.30 L 853.86 136.00 L 849.27 132.01 L 844.35 128.57 L 839.08 125.67 L 833.53 123.34 L 827.78 121.61 L 821.80 120.49 L 817.25 120.07 L 812.67 120.03 L 808.03 120.36 L 803.32 121.08 L 798.68 122.21 L 794.26 123.66 L 790.04 125.45 L 786.00 127.57 L 780.90 130.88 L 776.24 134.67 L 772.00 138.93 L 768.23 143.62 L 764.99 148.67 L 762.26 154.11 L 760.61 158.36 L 759.31 162.75 L 758.36 167.30 L 757.76 172.02 L 752.80 173.85 L 748.17 176.03 L 743.83 178.58 L 739.76 181.50 L 735.96 184.77 L 732.50 188.30 L 729.38 192.11 L 726.58 196.19 L 724.15 200.51 L 722.12 204.98 L 720.47 209.64 L 719.21 214.50 L 718.39 219.43 L 718.03 224.45 L 718.11 229.57 L 718.66 234.81 L 719.71 239.98 L 721.17 244.89 L 723.02 249.56 L 725.29 254.02 L 727.94 258.28 L 730.91 262.23 L 734.19 265.90 L 737.81 269.28 L 741.70 272.34 L 745.82 275.03 L 750.18 277.37 L 754.80 279.35 L 759.55 280.92 L 764.45 282.05 L 769.53 282.74 L 774.80 283.00 L 933.05 283.00 L 938.36 282.76 L 943.46 282.07 L 948.40 280.94 L 953.17 279.37 L 957.82 277.38 L 962.20 275.04 L 966.33 272.33 L 970.25 269.25 L 973.88 265.84 L 977.17 262.15 L 980.14 258.17 L 982.80 253.89 L 985.06 249.40 L 986.91 244.69 L 988.35 239.75 L 989.38 234.55 L 989.91 229.27 L 989.96 224.12 L 989.56 219.08 L 988.70 214.13 L 987.40 209.26 L 985.71 204.59 L 983.63 200.10 L 981.14 195.79 L 978.29 191.71 L 975.12 187.92 L 971.61 184.41 L 967.74 181.16 L 963.62 178.27 L 959.23 175.76 L 954.55 173.62 L 949.54 171.85 L 949.62 171.74 Z" fill="url(#linearGradient-3)" fill-rule="nonzero" group-id="1" id="路径" node-id="45" stroke-linecap="butt" stroke-width="1" target-height="162.97498" target-width="271.93683" target-x="718.0257" target-y="120.02502"></path><g node-id="146"><path d="M 1024.00 742.00 L 1023.72 747.26 L 1022.92 752.49 L 1021.58 757.74 L 1019.68 763.02 L 1017.19 768.35 L 1014.07 773.75 L 1009.99 779.63 L 1005.12 785.58 L 999.39 791.62 L 992.72 797.76 L 985.03 803.99 L 977.44 809.50 L 969.00 815.04 L 959.66 820.62 L 949.34 826.24 L 937.98 831.88 L 924.12 838.13 L 908.91 844.34 L 892.24 850.48 L 874.04 856.55 L 854.73 862.35 L 834.25 867.89 L 812.55 873.15 L 790.76 877.88 L 768.00 882.30 L 744.23 886.38 L 720.41 889.97 L 695.82 893.20 L 670.45 896.05 L 645.04 898.44 L 619.09 900.42 L 592.58 901.98 L 566.05 903.10 L 539.19 903.77 L 512.00 904.00 L 484.81 903.77 L 457.95 903.10 L 431.42 901.98 L 404.91 900.42 L 378.96 898.44 L 353.55 896.05 L 328.18 893.20 L 303.59 889.97 L 279.77 886.38 L 256.00 882.30 L 233.24 877.88 L 211.45 873.15 L 189.75 867.89 L 169.27 862.35 L 149.96 856.55 L 131.76 850.48 L 115.09 844.34 L 99.88 838.13 L 86.02 831.88 L 74.66 826.24 L 64.34 820.62 L 55.00 815.04 L 46.56 809.50 L 38.97 803.99 L 31.28 797.76 L 24.61 791.62 L 18.88 785.58 L 14.01 779.63 L 9.93 773.75 L 6.81 768.35 L 4.32 763.02 L 2.42 757.74 L 1.08 752.49 L 0.28 747.26 L 0.00 742.00 L 0.28 736.74 L 1.08 731.51 L 2.42 726.26 L 4.32 720.98 L 6.81 715.65 L 9.93 710.25 L 14.01 704.37 L 18.88 698.42 L 24.61 692.38 L 31.28 686.24 L 38.97 680.01 L 46.56 674.50 L 55.00 668.96 L 64.34 663.38 L 74.66 657.76 L 86.02 652.12 L 99.88 645.87 L 115.09 639.66 L 131.76 633.52 L 149.96 627.45 L 169.27 621.65 L 189.75 616.11 L 211.45 610.85 L 233.24 606.12 L 256.00 601.70 L 279.77 597.62 L 303.59 594.03 L 328.18 590.80 L 353.55 587.95 L 378.96 585.56 L 404.91 583.58 L 431.42 582.02 L 457.95 580.90 L 484.81 580.23 L 512.00 580.00 L 539.19 580.23 L 566.05 580.90 L 592.58 582.02 L 619.09 583.58 L 645.04 585.56 L 670.45 587.95 L 695.82 590.80 L 720.41 594.03 L 744.23 597.62 L 768.00 601.70 L 790.76 606.12 L 812.55 610.85 L 834.25 616.11 L 854.73 621.65 L 874.04 627.45 L 892.24 633.52 L 908.91 639.66 L 924.12 645.87 L 937.98 652.12 L 949.34 657.76 L 959.66 663.38 L 969.00 668.96 L 977.44 674.50 L 985.03 680.01 L 992.72 686.24 L 999.39 692.38 L 1005.12 698.42 L 1009.99 704.37 L 1014.07 710.25 L 1017.19 715.65 L 1019.68 720.98 L 1021.58 726.26 L 1022.92 731.51 L 1023.72 736.74 L 1024.00 742.00 Z" fill="url(#linearGradient-4)" fill-opacity="0.40774465" fill-rule="nonzero" group-id="1,4" id="椭圆形" node-id="46" stroke-linecap="butt" stroke-opacity="0.40774465" stroke-width="1" target-height="324" target-width="1024" target-x="0" target-y="580"></path></g><path d="M 906.00 606.00 L 901.13 670.00 L 865.00 659.52 Z" fill="#fad4d2" fill-rule="nonzero" group-id="1" id="路径" node-id="47" stroke-linecap="butt" stroke-width="1" target-height="64" target-width="41" target-x="865" target-y="606"></path><path d="M 904.85 606.00 L 935.00 662.39 L 900.00 670.00 Z" fill="#fdc6c3" fill-rule="nonzero" group-id="1" id="路径" node-id="48" stroke-linecap="butt" stroke-width="1" target-height="64" target-width="35" target-x="900" target-y="606"></path><path d="M 201.37 594.00 L 206.00 642.00 L 177.00 638.81 Z" fill="#f7d9d7" fill-rule="nonzero" group-id="1" id="路径" node-id="49" stroke-linecap="butt" stroke-width="1" target-height="48" target-width="29" target-x="177" target-y="594"></path><path d="M 200.00 594.00 L 230.00 631.89 L 204.55 642.00 Z" fill="#ffccc8" fill-rule="nonzero" group-id="1" id="路径" node-id="50" stroke-linecap="butt" stroke-width="1" target-height="48" target-width="30" target-x="200" target-y="594"></path><path d="M 148.48 564.00 L 158.00 665.00 L 94.00 658.71 Z" fill="#fad4d2" fill-rule="nonzero" group-id="1" id="路径" node-id="51" stroke-linecap="butt" stroke-width="1" target-height="101" target-width="64" target-x="94" target-y="564"></path><path d="M 147.00 564.00 L 214.00 643.37 L 156.53 665.00 Z" fill="#fdc6c3" fill-rule="nonzero" group-id="1" id="路径" node-id="52" stroke-linecap="butt" stroke-width="1" target-height="101" target-width="67" target-x="147" target-y="564"></path></g><g node-id="144"><g node-id="147"><g node-id="149"><path d="M 411.11 329.61 L 594.31 329.61 L 596.87 329.85 L 599.21 330.49 L 601.38 331.52 L 603.34 332.91 L 605.01 334.58 L 606.40 336.54 L 607.44 338.71 L 608.08 341.05 L 608.31 343.61 L 608.21 345.30 L 607.90 346.98 L 602.81 366.37 L 597.61 384.05 L 592.30 400.15 L 586.91 414.74 L 581.46 427.94 L 575.96 439.85 L 570.43 450.54 L 564.86 460.11 L 559.28 468.64 L 553.68 476.21 L 548.08 482.89 L 542.46 488.75 L 536.82 493.84 L 531.16 498.23 L 525.47 501.96 L 519.73 505.07 L 513.93 507.59 L 508.04 509.55 L 501.17 507.14 L 494.42 504.17 L 487.79 500.61 L 481.25 496.44 L 474.80 491.64 L 468.41 486.16 L 462.10 479.96 L 455.84 472.99 L 449.64 465.20 L 443.51 456.53 L 437.44 446.92 L 431.44 436.31 L 425.52 424.62 L 419.70 411.77 L 413.98 397.70 L 408.38 382.33 L 402.92 365.56 L 397.61 347.32 L 397.17 344.79 L 397.16 342.36 L 397.58 340.00 L 398.41 337.73 L 399.57 335.68 L 401.10 333.82 L 402.92 332.25 L 405.00 331.01 L 407.41 330.11 L 409.24 329.73 L 411.11 329.61 Z" fill="#feedec" fill-opacity="0.7682481" fill-rule="evenodd" group-id="2,5,7" id="矩形" node-id="55" stroke-linecap="butt" stroke-opacity="0.7682481" stroke-width="1" target-height="179.94336" target-width="211.15265" target-x="397.16058" target-y="329.60876"></path></g><path d="M 406.81 360.24 L 409.12 356.94 L 411.81 353.83 L 414.91 350.90 L 418.44 348.14 L 422.45 345.55 L 429.77 344.95 L 439.83 344.41 L 463.34 343.71 L 490.50 343.42 L 518.83 343.51 L 545.83 343.92 L 569.01 344.61 L 585.91 345.55 L 589.16 346.50 L 591.43 347.67 L 593.33 349.18 L 594.95 350.95 L 598.30 355.21 L 600.37 357.53 L 603.29 360.24 L 603.37 355.89 L 603.61 351.83 L 603.79 347.86 L 603.71 344.19 L 603.42 341.81 L 602.83 339.53 L 601.93 337.33 L 600.70 335.32 L 598.94 333.30 L 596.56 331.26 L 593.92 329.55 L 590.43 327.79 L 585.91 325.99 L 573.63 325.47 L 555.24 324.93 L 532.58 324.45 L 507.52 324.11 L 481.92 324.00 L 457.64 324.22 L 436.53 324.85 L 427.39 325.38 L 420.46 325.99 L 417.89 326.75 L 415.70 327.75 L 413.85 328.98 L 412.19 330.47 L 410.80 332.10 L 409.65 333.88 L 408.32 336.76 L 407.45 339.73 L 406.95 342.74 L 406.81 345.55 L 406.81 360.24 Z" fill="#ec463d" fill-rule="evenodd" group-id="2,5" id="路径-22" node-id="56" stroke-linecap="butt" stroke-width="1" target-height="36.23706" target-width="196.98666" target-x="406.80508" target-y="324.0028"></path></g><g node-id="148"><g node-id="150"><path d="M 411.11 653.39 L 594.31 653.39 L 596.87 653.15 L 599.21 652.51 L 601.38 651.48 L 603.34 650.09 L 605.01 648.42 L 606.40 646.46 L 607.44 644.29 L 608.08 641.95 L 608.31 639.39 L 608.21 637.70 L 607.90 636.02 L 602.81 616.63 L 597.61 598.95 L 592.30 582.85 L 586.91 568.26 L 581.46 555.06 L 575.96 543.15 L 570.43 532.46 L 564.86 522.89 L 559.28 514.36 L 553.68 506.79 L 548.08 500.11 L 542.46 494.25 L 536.82 489.16 L 531.16 484.77 L 525.47 481.04 L 519.73 477.93 L 513.93 475.41 L 508.04 473.45 L 501.17 475.86 L 494.42 478.83 L 487.79 482.39 L 481.25 486.56 L 474.80 491.36 L 468.41 496.84 L 462.10 503.04 L 455.84 510.01 L 449.64 517.80 L 443.51 526.47 L 437.44 536.08 L 431.44 546.69 L 425.52 558.38 L 419.70 571.23 L 413.98 585.30 L 408.38 600.67 L 402.92 617.44 L 397.61 635.68 L 397.17 638.21 L 397.16 640.64 L 397.58 643.00 L 398.41 645.27 L 399.57 647.32 L 401.10 649.18 L 402.92 650.75 L 405.00 651.99 L 407.41 652.89 L 409.24 653.27 L 411.11 653.39 Z" fill="#feedec" fill-opacity="0.7682481" fill-rule="evenodd" group-id="2,6,8" id="矩形" node-id="58" stroke-linecap="butt" stroke-opacity="0.7682481" stroke-width="1" target-height="179.94336" target-width="211.15265" target-x="397.16058" target-y="473.44788"></path></g><path d="M 415.93 622.76 L 418.61 626.89 L 421.81 630.70 L 425.59 634.22 L 429.98 637.45 L 436.55 638.05 L 445.58 638.59 L 466.69 639.29 L 491.08 639.58 L 516.51 639.49 L 540.75 639.08 L 561.57 638.39 L 576.74 637.45 L 579.65 636.50 L 581.69 635.33 L 583.39 633.83 L 584.86 632.05 L 587.86 627.79 L 589.73 625.46 L 592.34 622.76 L 592.42 627.11 L 592.63 631.17 L 592.79 635.14 L 592.72 638.81 L 592.46 641.19 L 591.92 643.47 L 591.12 645.67 L 590.00 647.70 L 588.42 649.72 L 586.30 651.74 L 583.92 653.46 L 580.78 655.22 L 576.74 657.01 L 565.72 657.53 L 549.20 658.07 L 528.86 658.55 L 506.36 658.89 L 483.37 659.00 L 461.57 658.78 L 442.62 658.15 L 434.41 657.62 L 428.19 657.01 L 425.19 655.93 L 422.74 654.44 L 420.78 652.55 L 419.16 650.31 L 417.90 647.89 L 416.99 645.27 L 416.17 641.22 L 415.93 637.45 L 415.93 622.76 Z" fill="#ec463d" fill-rule="evenodd" group-id="2,6" id="路径-22" node-id="59" stroke-linecap="butt" stroke-width="1" target-height="36.23706" target-width="176.86328" target-x="415.9298" target-y="622.76013"></path></g><path d="M 505.08 463.00 L 510.37 463.17 L 515.61 463.64 L 520.78 464.42 L 525.92 465.49 L 530.61 466.79 L 534.90 468.28 L 539.06 470.12 L 542.42 472.03 L 545.08 474.01 L 546.86 475.79 L 548.05 477.53 L 548.74 479.26 L 549.00 481.03 L 546.69 484.24 L 543.90 487.52 L 540.58 490.87 L 537.03 493.95 L 532.86 497.06 L 528.00 500.21 L 522.97 503.02 L 517.16 505.82 L 510.50 508.59 L 510.50 600.00 L 503.28 600.00 L 503.28 508.60 L 495.87 505.71 L 489.08 502.51 L 482.86 499.02 L 477.17 495.23 L 471.99 491.16 L 467.27 486.79 L 463.00 482.13 L 468.73 477.29 L 474.29 473.27 L 479.69 469.99 L 484.94 467.40 L 490.09 465.44 L 495.14 464.07 L 500.13 463.27 L 505.08 463.00 Z" fill="url(#linearGradient-5)" fill-rule="evenodd" group-id="2" id="椭圆形-3" node-id="60" stroke-linecap="butt" stroke-width="1" target-height="137" target-width="86" target-x="463" target-y="463"></path><path d="M 500.37 543.00 L 479.80 554.81 L 463.41 564.79 L 450.62 573.17 L 440.88 580.14 L 433.66 585.89 L 428.52 590.60 L 425.05 594.43 L 422.86 597.53 L 421.23 600.98 L 420.29 604.39 L 420.00 607.81 L 420.27 611.25 L 421.03 614.59 L 422.29 617.87 L 423.97 620.98 L 425.98 623.86 L 428.34 626.53 L 430.98 628.93 L 433.77 630.94 L 436.73 632.59 L 439.86 633.86 L 442.96 634.61 L 446.06 634.88 L 457.14 634.90 L 473.78 634.94 L 494.43 634.98 L 517.54 635.00 L 541.56 634.97 L 564.92 634.88 L 569.19 633.34 L 572.82 631.69 L 575.88 629.94 L 578.43 628.10 L 581.58 625.21 L 583.96 622.29 L 585.68 619.34 L 586.95 616.15 L 587.71 613.07 L 587.99 610.07 L 587.87 607.04 L 587.42 604.29 L 586.66 601.78 L 585.58 599.38 L 584.37 597.46 L 583.02 595.94 L 570.93 585.04 L 559.60 575.40 L 549.00 566.92 L 539.08 559.52 L 529.81 553.12 L 521.14 547.64 L 513.04 543.00 L 500.37 543.00 Z" fill="url(#linearGradient-6)" fill-rule="evenodd" group-id="2" id="路径-23" node-id="61" stroke-linecap="butt" stroke-width="1" target-height="92" target-width="167.98953" target-x="420.00027" target-y="543"></path><path d="M 450.18 606.26 L 451.32 608.79 L 451.89 611.24 L 451.92 613.66 L 451.42 615.76 L 450.80 617.01 L 449.95 618.03 L 448.89 618.84 L 447.65 619.36 L 446.35 619.58 L 444.95 619.50 L 442.88 618.88 L 440.80 617.64 L 438.96 615.93 L 437.34 613.67 L 436.19 611.13 L 435.63 608.68 L 435.60 606.26 L 436.09 604.16 L 436.72 602.91 L 437.56 601.89 L 438.63 601.08 L 439.87 600.56 L 441.17 600.34 L 442.57 600.42 L 444.63 601.04 L 446.71 602.28 L 448.56 604.00 L 450.18 606.26 Z" fill="url(#linearGradient-7)" fill-rule="evenodd" group-id="2" id="椭圆形" node-id="62" stroke-linecap="butt" stroke-width="1" target-height="19.239624" target-width="16.319061" target-x="435.5983" target-y="600.3425"></path></g><g node-id="145"><path d="M 620.07 629.00 L 637.00 629.00 L 628.53 659.00 L 613.00 659.00 Z" fill="#cf3833" fill-rule="evenodd" group-id="3" id="路径-21" node-id="64" stroke-linecap="butt" stroke-width="1" target-height="30" target-width="24" target-x="613" target-y="629"></path><path d="M 616.07 629.00 L 633.00 629.00 L 624.53 659.00 L 609.00 659.00 Z" fill="url(#linearGradient-8)" fill-rule="evenodd" group-id="3" id="路径-21" node-id="65" stroke-linecap="butt" stroke-width="1" target-height="30" target-width="24" target-x="609" target-y="629"></path><path d="M 649.16 539.69 L 577.07 612.69 L 576.20 614.03 L 575.92 615.53 L 576.22 617.02 L 577.11 618.35 L 578.00 619.01 L 579.05 619.41 L 682.17 642.47 L 683.77 642.50 L 685.18 641.95 L 686.29 640.90 L 686.95 639.44 L 687.04 638.38 L 686.85 637.34 L 655.81 541.27 L 655.02 539.87 L 653.83 538.94 L 652.36 538.51 L 650.77 538.69 L 649.91 539.09 L 649.16 539.69 Z" fill="#d1332b" fill-rule="evenodd" group-id="3" id="路径-20" node-id="66" stroke-linecap="butt" stroke-width="1" target-height="103.99042" target-width="111.11786" target-x="575.9195" target-y="538.51245"></path><path d="M 645.16 539.69 L 573.07 612.69 L 572.20 614.03 L 571.92 615.53 L 572.22 617.02 L 573.11 618.35 L 574.00 619.01 L 575.05 619.41 L 678.17 642.47 L 679.77 642.50 L 681.18 641.95 L 682.29 640.90 L 682.95 639.44 L 683.04 638.38 L 682.85 637.34 L 651.81 541.27 L 651.02 539.87 L 649.83 538.94 L 648.36 538.51 L 646.77 538.69 L 645.91 539.09 L 645.16 539.69 Z" fill="url(#linearGradient-9)" fill-rule="evenodd" group-id="3" id="路径-20" node-id="67" stroke-linecap="butt" stroke-width="1" target-height="103.99042" target-width="111.11786" target-x="571.9195" target-y="538.51245"></path><path d="M 637.06 608.98 L 647.51 582.79 L 642.79 581.07 L 633.91 607.84 L 637.06 608.98 Z M 631.94 618.15 L 633.24 618.37 L 634.49 618.10 L 635.46 617.39 L 636.14 616.23 L 636.35 614.96 L 636.06 613.79 L 635.28 612.76 L 634.14 612.11 L 632.88 611.88 L 631.64 612.18 L 630.64 612.89 L 630.00 614.00 L 629.78 615.26 L 630.07 616.50 L 630.83 617.49 L 631.94 618.15 Z" fill="#ffffff" fill-rule="nonzero" group-id="3" id="！" node-id="68" stroke-linecap="butt" stroke-width="1" target-height="37.299194" target-width="17.73706" target-x="629.77527" target-y="581.07166"></path></g><path d="M 625.00 659.49 L 482.00 659.44 L 393.37 702.48 L 482.00 742.00 Z" fill="url(#linearGradient-10)" fill-rule="evenodd" id="路径-24" node-id="69" stroke="none" target-height="82.55847" target-width="231.62634" target-x="393.37366" target-y="659.4415"></path></svg>